<svg data-v-423bf9ae="" xmlns="http://www.w3.org/2000/svg" viewBox="0 0 837 90" class="iconLeft"><!----><!----><!----><g data-v-423bf9ae="" id="1d83a070-9fdf-4636-95c4-447d6a423583" fill="#000000" transform="matrix(4.559270569581267,0,0,4.559270569581267,108.35865619228935,2.2340414304825202)"><path d="M7.69 13.02L6.71 10.46L2.52 10.46L1.54 13.02L0.36 13.02L3.96 3.78L5.29 3.78L8.88 13.02L7.69 13.02ZM2.93 9.41L6.30 9.41L5.05 6.13L4.62 4.84L4.59 4.84L4.19 6.09L2.93 9.41ZM11.61 2.80L11.61 11.14L11.61 11.14Q11.61 11.68 11.77 11.88L11.77 11.88L11.77 11.88Q11.93 12.08 12.36 12.08L12.36 12.08L12.36 12.08Q12.66 12.08 12.87 12.04L12.87 12.04L12.87 12.04Q13.09 12.00 13.38 11.89L13.38 11.89L13.20 12.96L13.20 12.96Q12.74 13.16 12.17 13.16L12.17 13.16L12.17 13.16Q11.31 13.16 10.90 12.70L10.90 12.70L10.90 12.70Q10.49 12.24 10.49 11.28L10.49 11.28L10.49 2.80L11.61 2.80ZM18.27 5.88L18.27 5.88Q19.74 5.88 20.60 6.85L20.60 6.85L20.60 6.85Q21.46 7.83 21.46 9.52L21.46 9.52L21.46 9.52Q21.46 11.21 20.60 12.19L20.60 12.19L20.60 12.19Q19.74 13.16 18.27 13.16L18.27 13.16L18.27 13.16Q17.50 13.16 16.89 12.82L16.89 12.82L16.89 12.82Q16.28 12.49 15.95 11.93L15.95 11.93L15.95 15.96L14.83 15.96L14.83 6.02L15.81 6.02L15.88 7.24L15.88 7.24Q16.18 6.62 16.82 6.25L16.82 6.25L16.82 6.25Q17.46 5.88 18.27 5.88L18.27 5.88ZM18.14 12.18L18.14 12.18Q19.17 12.18 19.75 11.46L19.75 11.46L19.75 11.46Q20.34 10.74 20.34 9.52L20.34 9.52L20.34 9.52Q20.34 8.30 19.75 7.58L19.75 7.58L19.75 7.58Q19.17 6.86 18.14 6.86L18.14 6.86L18.14 6.86Q17.14 6.86 16.54 7.56L16.54 7.56L16.54 7.56Q15.95 8.26 15.95 9.44L15.95 9.44L15.95 9.60L15.95 9.60Q15.95 10.78 16.54 11.48L16.54 11.48L16.54 11.48Q17.14 12.18 18.14 12.18L18.14 12.18ZM27.05 5.88L27.05 5.88Q28.24 5.88 29.01 6.57L29.01 6.57L29.01 6.57Q29.78 7.25 29.78 8.54L29.78 8.54L29.78 13.02L28.66 13.02L28.66 8.93L28.66 8.93Q28.66 7.84 28.19 7.35L28.19 7.35L28.19 7.35Q27.72 6.86 26.94 6.86L26.94 6.86L26.94 6.86Q26.39 6.86 25.89 7.11L25.89 7.11L25.89 7.11Q25.40 7.36 25.08 7.92L25.08 7.92L25.08 7.92Q24.77 8.47 24.77 9.31L24.77 9.31L24.77 13.02L23.65 13.02L23.65 2.80L24.77 2.80L24.77 7.07L24.77 7.07Q25.12 6.47 25.71 6.17L25.71 6.17L25.71 6.17Q26.31 5.88 27.05 5.88L27.05 5.88ZM38.05 12.21L38.05 12.21Q38.33 12.21 38.61 12.14L38.61 12.14L38.54 13.02L38.54 13.02Q38.15 13.16 37.70 13.16L37.70 13.16L37.70 13.16Q37.16 13.16 36.84 12.92L36.84 12.92L36.84 12.92Q36.53 12.68 36.44 12.12L36.44 12.12L36.44 12.12Q36.12 12.61 35.50 12.89L35.50 12.89L35.50 12.89Q34.87 13.16 34.19 13.16L34.19 13.16L34.19 13.16Q33.15 13.16 32.48 12.68L32.48 12.68L32.48 12.68Q31.81 12.19 31.81 11.28L31.81 11.28L31.81 11.28Q31.81 10.49 32.51 9.90L32.51 9.90L32.51 9.90Q33.21 9.32 34.54 9.10L34.54 9.10L36.40 8.79L36.40 8.40L36.40 8.40Q36.40 7.70 35.97 7.28L35.97 7.28L35.97 7.28Q35.53 6.86 34.76 6.86L34.76 6.86L34.76 6.86Q34.06 6.86 33.55 7.20L33.55 7.20L33.55 7.20Q33.04 7.53 32.76 8.19L32.76 8.19L31.93 7.59L31.93 7.59Q32.21 6.80 32.98 6.34L32.98 6.34L32.98 6.34Q33.74 5.88 34.76 5.88L34.76 5.88L34.76 5.88Q36.01 5.88 36.76 6.48L36.76 6.48L36.76 6.48Q37.52 7.08 37.52 8.26L37.52 8.26L37.52 11.70L37.52 11.70Q37.52 11.96 37.65 12.08L37.65 12.08L37.65 12.08Q37.77 12.21 38.05 12.21L38.05 12.21ZM34.24 12.18L34.24 12.18Q35.13 12.18 35.76 11.76L35.76 11.76L35.76 11.76Q36.40 11.34 36.40 10.67L36.40 10.67L36.40 9.70L34.83 10.00L34.83 10.00Q33.89 10.16 33.43 10.48L33.43 10.48L33.43 10.48Q32.97 10.79 32.97 11.28L32.97 11.28L32.97 11.28Q32.97 11.72 33.31 11.95L33.31 11.95L33.31 11.95Q33.64 12.18 34.24 12.18L34.24 12.18ZM46.02 11.97L51.59 11.97L51.59 13.02L44.90 13.02L44.90 3.78L51.38 3.78L51.38 4.83L46.02 4.83L46.02 7.81L50.19 7.81L50.19 8.86L46.02 8.86L46.02 11.97ZM58.45 2.80L59.57 2.80L59.57 13.02L58.59 13.02L58.52 11.80L58.52 11.80Q58.21 12.42 57.58 12.79L57.58 12.79L57.58 12.79Q56.94 13.16 56.13 13.16L56.13 13.16L56.13 13.16Q54.66 13.16 53.80 12.19L53.80 12.19L53.80 12.19Q52.93 11.21 52.93 9.52L52.93 9.52L52.93 9.52Q52.93 7.83 53.80 6.85L53.80 6.85L53.80 6.85Q54.66 5.88 56.13 5.88L56.13 5.88L56.13 5.88Q56.90 5.88 57.51 6.22L57.51 6.22L57.51 6.22Q58.11 6.55 58.45 7.11L58.45 7.11L58.45 2.80ZM56.25 12.18L56.25 12.18Q57.26 12.18 57.86 11.48L57.86 11.48L57.86 11.48Q58.45 10.78 58.45 9.60L58.45 9.60L58.45 9.44L58.45 9.44Q58.45 8.26 57.86 7.56L57.86 7.56L57.86 7.56Q57.26 6.86 56.25 6.86L56.25 6.86L56.25 6.86Q55.23 6.86 54.64 7.58L54.64 7.58L54.64 7.58Q54.05 8.30 54.05 9.52L54.05 9.52L54.05 9.52Q54.05 10.74 54.64 11.46L54.64 11.46L54.64 11.46Q55.23 12.18 56.25 12.18L56.25 12.18ZM67.12 6.02L68.24 6.02L68.24 13.02L67.26 13.02L67.19 11.96L67.19 11.96Q66.49 13.16 64.68 13.16L64.68 13.16L64.68 13.16Q63.55 13.16 62.83 12.53L62.83 12.53L62.83 12.53Q62.10 11.90 62.10 10.60L62.10 10.60L62.10 6.02L63.22 6.02L63.22 10.30L63.22 10.30Q63.22 11.33 63.64 11.75L63.64 11.75L63.64 11.75Q64.06 12.18 64.88 12.18L64.88 12.18L64.88 12.18Q65.84 12.18 66.48 11.59L66.48 11.59L66.48 11.59Q67.12 11.00 67.12 9.83L67.12 9.83L67.12 6.02ZM73.79 5.88L73.79 5.88Q74.84 5.88 75.57 6.36L75.57 6.36L75.57 6.36Q76.29 6.85 76.69 7.74L76.69 7.74L75.63 8.25L75.63 8.25Q75.18 6.86 73.77 6.86L73.77 6.86L73.77 6.86Q72.72 6.86 72.12 7.57L72.12 7.57L72.12 7.57Q71.53 8.27 71.53 9.52L71.53 9.52L71.53 9.52Q71.53 10.77 72.12 11.47L72.12 11.47L72.12 11.47Q72.72 12.18 73.77 12.18L73.77 12.18L73.77 12.18Q74.58 12.18 75.08 11.81L75.08 11.81L75.08 11.81Q75.57 11.44 75.73 10.74L75.73 10.74L76.76 11.10L76.76 11.10Q76.40 12.08 75.64 12.62L75.64 12.62L75.64 12.62Q74.89 13.16 73.79 13.16L73.79 13.16L73.79 13.16Q72.21 13.16 71.31 12.19L71.31 12.19L71.31 12.19Q70.41 11.23 70.41 9.52L70.41 9.52L70.41 9.52Q70.41 7.81 71.31 6.85L71.31 6.85L71.31 6.85Q72.21 5.88 73.79 5.88L73.79 5.88ZM84.48 12.21L84.48 12.21Q84.76 12.21 85.04 12.14L85.04 12.14L84.97 13.02L84.97 13.02Q84.57 13.16 84.13 13.16L84.13 13.16L84.13 13.16Q83.58 13.16 83.27 12.92L83.27 12.92L83.27 12.92Q82.95 12.68 82.87 12.12L82.87 12.12L82.87 12.12Q82.54 12.61 81.92 12.89L81.92 12.89L81.92 12.89Q81.30 13.16 80.61 13.16L80.61 13.16L80.61 13.16Q79.58 13.16 78.90 12.68L78.90 12.68L78.90 12.68Q78.23 12.19 78.23 11.28L78.23 11.28L78.23 11.28Q78.23 10.49 78.93 9.90L78.93 9.90L78.93 9.90Q79.63 9.32 80.96 9.10L80.96 9.10L82.82 8.79L82.82 8.40L82.82 8.40Q82.82 7.70 82.39 7.28L82.39 7.28L82.39 7.28Q81.96 6.86 81.19 6.86L81.19 6.86L81.19 6.86Q80.49 6.86 79.98 7.20L79.98 7.20L79.98 7.20Q79.46 7.53 79.18 8.19L79.18 8.19L78.36 7.59L78.36 7.59Q78.64 6.80 79.40 6.34L79.40 6.34L79.40 6.34Q80.16 5.88 81.19 5.88L81.19 5.88L81.19 5.88Q82.43 5.88 83.19 6.48L83.19 6.48L83.19 6.48Q83.94 7.08 83.94 8.26L83.94 8.26L83.94 11.70L83.94 11.70Q83.94 11.96 84.07 12.08L84.07 12.08L84.07 12.08Q84.20 12.21 84.48 12.21L84.48 12.21ZM80.67 12.18L80.67 12.18Q81.55 12.18 82.19 11.76L82.19 11.76L82.19 11.76Q82.82 11.34 82.82 10.67L82.82 10.67L82.82 9.70L81.26 10.00L81.26 10.00Q80.32 10.16 79.86 10.48L79.86 10.48L79.86 10.48Q79.39 10.79 79.39 11.28L79.39 11.28L79.39 11.28Q79.39 11.72 79.73 11.95L79.73 11.95L79.73 11.95Q80.07 12.18 80.67 12.18L80.67 12.18ZM90.27 11.59L90.66 12.53L90.66 12.53Q89.96 13.16 88.86 13.16L88.86 13.16L88.86 13.16Q88.00 13.16 87.47 12.70L87.47 12.70L87.47 12.70Q86.93 12.24 86.91 11.28L86.91 11.28L86.91 6.99L85.51 6.99L85.51 6.02L86.91 6.02L86.91 4.34L88.03 4.03L88.03 6.02L90.62 6.02L90.62 6.99L88.03 6.99L88.03 11.09L88.03 11.09Q88.03 11.59 88.32 11.85L88.32 11.85L88.32 11.85Q88.61 12.11 89.08 12.11L89.08 12.11L89.08 12.11Q89.75 12.11 90.27 11.59L90.27 11.59ZM92.81 4.68L92.81 4.68Q92.43 4.68 92.20 4.44L92.20 4.44L92.20 4.44Q91.97 4.21 91.97 3.84L91.97 3.84L91.97 3.84Q91.97 3.46 92.20 3.23L92.20 3.23L92.20 3.23Q92.43 3.00 92.81 3.00L92.81 3.00L92.81 3.00Q93.18 3.00 93.42 3.23L93.42 3.23L93.42 3.23Q93.65 3.46 93.65 3.84L93.65 3.84L93.65 3.84Q93.65 4.21 93.42 4.44L93.42 4.44L93.42 4.44Q93.18 4.68 92.81 4.68L92.81 4.68ZM93.37 6.02L93.37 13.02L92.25 13.02L92.25 6.02L93.37 6.02ZM98.92 5.88L98.92 5.88Q100.51 5.88 101.41 6.85L101.41 6.85L101.41 6.85Q102.31 7.81 102.31 9.52L102.31 9.52L102.31 9.52Q102.31 11.23 101.41 12.19L101.41 12.19L101.41 12.19Q100.51 13.16 98.92 13.16L98.92 13.16L98.92 13.16Q97.34 13.16 96.44 12.19L96.44 12.19L96.44 12.19Q95.54 11.23 95.54 9.52L95.54 9.52L95.54 9.52Q95.54 7.81 96.44 6.85L96.44 6.85L96.44 6.85Q97.34 5.88 98.92 5.88L98.92 5.88ZM98.92 6.85L98.92 6.85Q97.86 6.85 97.26 7.56L97.26 7.56L97.26 7.56Q96.66 8.27 96.66 9.52L96.66 9.52L96.66 9.52Q96.66 10.77 97.26 11.48L97.26 11.48L97.26 11.48Q97.86 12.19 98.92 12.19L98.92 12.19L98.92 12.19Q99.99 12.19 100.59 11.48L100.59 11.48L100.59 11.48Q101.19 10.77 101.19 9.52L101.19 9.52L101.19 9.52Q101.19 8.27 100.59 7.56L100.59 7.56L100.59 7.56Q99.99 6.85 98.92 6.85L98.92 6.85ZM107.88 5.88L107.88 5.88Q109.07 5.88 109.84 6.57L109.84 6.57L109.84 6.57Q110.61 7.25 110.61 8.54L110.61 8.54L110.61 13.02L109.49 13.02L109.49 8.93L109.49 8.93Q109.49 7.84 109.03 7.35L109.03 7.35L109.03 7.35Q108.56 6.86 107.77 6.86L107.77 6.86L107.77 6.86Q107.21 6.86 106.72 7.10L106.72 7.10L106.72 7.10Q106.23 7.35 105.92 7.90L105.92 7.90L105.92 7.90Q105.60 8.46 105.60 9.30L105.60 9.30L105.60 13.02L104.48 13.02L104.48 6.02L105.46 6.02L105.53 7.11L105.53 7.11Q105.88 6.48 106.50 6.18L106.50 6.18L106.50 6.18Q107.11 5.88 107.88 5.88L107.88 5.88ZM121.86 3.64L121.86 3.64Q123.16 3.64 124.12 4.22L124.12 4.22L124.12 4.22Q125.09 4.80 125.62 5.87L125.62 5.87L125.62 5.87Q126.14 6.94 126.14 8.40L126.14 8.40L126.14 8.40Q126.14 9.86 125.62 10.93L125.62 10.93L125.62 10.93Q125.09 12.00 124.12 12.58L124.12 12.58L124.12 12.58Q123.16 13.16 121.86 13.16L121.86 13.16L121.86 13.16Q120.55 13.16 119.59 12.58L119.59 12.58L119.59 12.58Q118.62 12.00 118.10 10.93L118.10 10.93L118.10 10.93Q117.57 9.86 117.57 8.40L117.57 8.40L117.57 8.40Q117.57 6.94 118.10 5.87L118.10 5.87L118.10 5.87Q118.62 4.80 119.59 4.22L119.59 4.22L119.59 4.22Q120.55 3.64 121.86 3.64L121.86 3.64ZM121.86 4.69L121.86 4.69Q120.41 4.69 119.58 5.68L119.58 5.68L119.58 5.68Q118.75 6.66 118.75 8.40L118.75 8.40L118.75 8.40Q118.75 10.14 119.58 11.12L119.58 11.12L119.58 11.12Q120.41 12.11 121.86 12.11L121.86 12.11L121.86 12.11Q123.30 12.11 124.13 11.12L124.13 11.12L124.13 11.12Q124.96 10.14 124.96 8.40L124.96 8.40L124.96 8.40Q124.96 6.66 124.13 5.68L124.13 5.68L124.13 5.68Q123.30 4.69 121.86 4.69L121.86 4.69ZM131.73 5.88L131.73 5.88Q132.92 5.88 133.69 6.57L133.69 6.57L133.69 6.57Q134.46 7.25 134.46 8.54L134.46 8.54L134.46 13.02L133.34 13.02L133.34 8.93L133.34 8.93Q133.34 7.84 132.87 7.35L132.87 7.35L132.87 7.35Q132.40 6.86 131.61 6.86L131.61 6.86L131.61 6.86Q131.05 6.86 130.56 7.10L130.56 7.10L130.56 7.10Q130.07 7.35 129.76 7.90L129.76 7.90L129.76 7.90Q129.44 8.46 129.44 9.30L129.44 9.30L129.44 13.02L128.32 13.02L128.32 6.02L129.30 6.02L129.37 7.11L129.37 7.11Q129.72 6.48 130.34 6.18L130.34 6.18L130.34 6.18Q130.96 5.88 131.73 5.88L131.73 5.88ZM138.05 2.80L138.05 11.14L138.05 11.14Q138.05 11.68 138.22 11.88L138.22 11.88L138.22 11.88Q138.38 12.08 138.81 12.08L138.81 12.08L138.81 12.08Q139.10 12.08 139.32 12.04L139.32 12.04L139.32 12.04Q139.54 12.00 139.83 11.89L139.83 11.89L139.65 12.96L139.65 12.96Q139.19 13.16 138.61 13.16L138.61 13.16L138.61 13.16Q137.76 13.16 137.35 12.70L137.35 12.70L137.35 12.70Q136.93 12.24 136.93 11.28L136.93 11.28L136.93 2.80L138.05 2.80ZM141.83 4.68L141.83 4.68Q141.46 4.68 141.23 4.44L141.23 4.44L141.23 4.44Q140.99 4.21 140.99 3.84L140.99 3.84L140.99 3.84Q140.99 3.46 141.23 3.23L141.23 3.23L141.23 3.23Q141.46 3.00 141.83 3.00L141.83 3.00L141.83 3.00Q142.21 3.00 142.44 3.23L142.44 3.23L142.44 3.23Q142.67 3.46 142.67 3.84L142.67 3.84L142.67 3.84Q142.67 4.21 142.44 4.44L142.44 4.44L142.44 4.44Q142.21 4.68 141.83 4.68L141.83 4.68ZM142.39 6.02L142.39 13.02L141.27 13.02L141.27 6.02L142.39 6.02ZM148.40 5.88L148.40 5.88Q149.59 5.88 150.36 6.57L150.36 6.57L150.36 6.57Q151.13 7.25 151.13 8.54L151.13 8.54L151.13 13.02L150.01 13.02L150.01 8.93L150.01 8.93Q150.01 7.84 149.54 7.35L149.54 7.35L149.54 7.35Q149.07 6.86 148.29 6.86L148.29 6.86L148.29 6.86Q147.73 6.86 147.24 7.10L147.24 7.10L147.24 7.10Q146.75 7.35 146.43 7.90L146.43 7.90L146.43 7.90Q146.12 8.46 146.12 9.30L146.12 9.30L146.12 13.02L145.00 13.02L145.00 6.02L145.98 6.02L146.05 7.11L146.05 7.11Q146.40 6.48 147.01 6.18L147.01 6.18L147.01 6.18Q147.63 5.88 148.40 5.88L148.40 5.88ZM159.67 9.16L159.67 9.16Q159.67 9.55 159.61 9.94L159.61 9.94L154.34 9.94L154.34 9.94Q154.43 11.00 155.04 11.59L155.04 11.59L155.04 11.59Q155.65 12.18 156.62 12.18L156.62 12.18L156.62 12.18Q157.39 12.18 157.90 11.91L157.90 11.91L157.90 11.91Q158.41 11.65 158.59 11.14L158.59 11.14L159.53 11.63L159.53 11.63Q159.11 12.38 158.41 12.77L158.41 12.77L158.41 12.77Q157.71 13.16 156.62 13.16L156.62 13.16L156.62 13.16Q155.04 13.16 154.13 12.19L154.13 12.19L154.13 12.19Q153.23 11.23 153.23 9.52L153.23 9.52L153.23 9.52Q153.23 7.81 154.09 6.85L154.09 6.85L154.09 6.85Q154.95 5.88 156.53 5.88L156.53 5.88L156.53 5.88Q157.51 5.88 158.23 6.31L158.23 6.31L158.23 6.31Q158.94 6.75 159.31 7.49L159.31 7.49L159.31 7.49Q159.67 8.23 159.67 9.16L159.67 9.16ZM156.53 6.86L156.53 6.86Q155.61 6.86 155.04 7.41L155.04 7.41L155.04 7.41Q154.48 7.95 154.35 8.95L154.35 8.95L158.59 8.95L158.59 8.95Q158.48 7.97 157.95 7.41L157.95 7.41L157.95 7.41Q157.42 6.86 156.53 6.86L156.53 6.86Z"></path></g><defs data-v-423bf9ae=""><linearGradient data-v-423bf9ae="" gradientTransform="rotate(25)" id="6a83eaf4-a613-4c06-98a5-4e18468e887a" x1="0%" y1="0%" x2="100%" y2="0%"><stop data-v-423bf9ae="" offset="0%" style="stop-color: rgb(78, 26, 112); stop-opacity: 1;"></stop><stop data-v-423bf9ae="" offset="100%" style="stop-color: rgb(43, 76, 242); stop-opacity: 1;"></stop></linearGradient></defs><g data-v-423bf9ae="" id="24a186d8-e81d-4d78-85bd-962dc7b0a852" transform="matrix(3.9130434782608696,0,0,3.9130434782608696,-17.108695652173914,-17.108695652173914)" stroke="none" fill="url(#6a83eaf4-a613-4c06-98a5-4e18468e887a)"><path d="M21.5 11.5H9v1h1.5v3h8v-3h2v3.293l-1.854 1.854.707.707L21 16.707l1.646 1.646.707-.707-1.853-1.853V11.5zm-4 3h-6v-2h6v2z"></path><path d="M4.5 22.5h11v4H11v1h10v-1h-4.5v-4h11v-18h-23v18zm1-17h21v16h-21v-16z"></path></g><!----></svg>