<svg data-v-fde0c5aa="" xmlns="http://www.w3.org/2000/svg" viewBox="0 0 300 300" class="icon"><!----><defs data-v-fde0c5aa=""><!----></defs><rect data-v-fde0c5aa="" fill="transparent" x="0" y="0" width="300px" height="300px" class="logo-background-square"></rect><!----><defs data-v-fde0c5aa=""><linearGradient data-v-fde0c5aa="" gradientTransform="rotate(25)" id="d216f53d-a830-4908-8bac-6c02f5bdab01" x1="0%" y1="0%" x2="100%" y2="0%"><stop data-v-fde0c5aa="" offset="0%" stop-color="#4E1A70" stop-opacity="1"></stop><stop data-v-fde0c5aa="" offset="100%" stop-color="#2B4CF2" stop-opacity="1"></stop></linearGradient></defs><g data-v-fde0c5aa="" id="73f8729c-d761-41a2-a88f-be675c26e16b" fill="url(#d216f53d-a830-4908-8bac-6c02f5bdab01)" stroke="none" transform="matrix(9.565217391304348,0,0,9.565217391304348,-3.0434782608695627,-3.0434782608695627)"><path d="M21.5 11.5H9v1h1.5v3h8v-3h2v3.293l-1.854 1.854.707.707L21 16.707l1.646 1.646.707-.707-1.853-1.853V11.5zm-4 3h-6v-2h6v2z"></path><path d="M4.5 22.5h11v4H11v1h10v-1h-4.5v-4h11v-18h-23v18zm1-17h21v16h-21v-16z"></path></g><!----></svg>